<svg xmlns="http://www.w3.org/2000/svg" xmlns:svg="http://www.w3.org/2000/svg" xmlns:xlink="http://www.w3.org/1999/xlink" version="1.0" height="740.0000000000006pt" width="820.0000000000002pt" viewBox="405 157 828.0000000000002 746.0000000000006" ><defs><style type="text/css">
            @font-face {
                font-family: 'lt_regular';
                src: url('https://app.creately.com/diagram/assets/fonts/lato/lt-regular-webfont.woff2') format('woff2'),
                    url('https://app.creately.com/diagram/assets/fonts/lato/lt-regular-webfont.woff') format('woff');
                font-weight: normal;
                font-style: normal;
            }
            @font-face {
                font-family: 'noto_regular';
                src: url('https://app.creately.com/diagram/assets/fonts/noto/noto-regular.woff') format('woff'),
                     url('https://app.creately.com/diagram/assets/fonts/noto/noto-regular.woff2') format('woff2');
                font-weight: normal;
                font-style: normal;
            }
        p {
            margin: 0;
        }
        </style></defs><defs><style>
            span{ display: inline-block; }
        </style></defs><g id="hoMjZkDifJo"><g transform="translate(440 160)"><path d="M 50.00000000000001,100.00000000000001 L 50.00000000000001,100.00000000000001 L 50.00000000000001,100.00000000000001 A 50.00000000000001 50.00000000000001 0 0 1 0 50.000000000000014 L 0,50.00000000000001 L 0,50.000000000000014 A 50.00000000000001 50.00000000000001 0 0 1 50.00000000000001 0 L 210.00000000000006,0 L 210.00000000000006,0 L 210.00000000000006,0 A 50.00000000000001 50.00000000000001 0 0 1 260.00000000000006 50.00000000000001 L 260.00000000000006,50.00000000000001 L 260.00000000000006,50.00000000000001 A 50.00000000000001 50.00000000000001 0 0 1 210.00000000000006 100.00000000000001 L 50.00000000000001,100.00000000000001 Z" fill="rgb(240,82,84)" stroke="#f05254" stroke-width="2" stroke-linecap="round" stroke-linejoin="round" stroke-dasharray="0 0"/></g><g transform="translate(458.5, 164.5) rotate(0, 111.5, 45.5)" width="223" height="91"><text text-decoration="none" x="29" fill="rgb(255, 255, 255)" font-size="10pt" font-family="lt_regular"  y="14">On&#160;</text><text text-decoration="none" x="49" fill="rgb(255, 255, 255)" font-size="10pt" font-family="lt_regular"  y="14">approval,&#160;</text><text text-decoration="none" x="103" fill="rgb(255, 255, 255)" font-size="10pt" font-family="lt_regular"  y="14">the&#160;</text><text text-decoration="none" x="125" fill="rgb(255, 255, 255)" font-size="10pt" font-family="lt_regular"  y="14">ERP&#160;</text><text text-decoration="none" x="152" fill="rgb(255, 255, 255)" font-size="10pt" font-family="lt_regular"  y="14">system</text><text text-decoration="none" x="194" fill="rgb(255, 255, 255)" font-size="10pt" font-family="lt_regular"  y="14"></text><text text-decoration="none" x="30.5" fill="rgb(255, 255, 255)" font-size="10pt" font-family="lt_regular"  y="32">auto&#160;</text><text text-decoration="none" x="58.5" fill="rgb(255, 255, 255)" font-size="10pt" font-family="lt_regular"  y="32">generates&#160;</text><text text-decoration="none" x="118.5" fill="rgb(255, 255, 255)" font-size="10pt" font-family="lt_regular"  y="32">the&#160;</text><text text-decoration="none" x="140.5" fill="rgb(255, 255, 255)" font-size="10pt" font-family="lt_regular"  y="32">vouchers</text><text text-decoration="none" x="192.5" fill="rgb(255, 255, 255)" font-size="10pt" font-family="lt_regular"  y="32"></text><text text-decoration="none" x="21" fill="rgb(255, 255, 255)" font-size="10pt" font-family="lt_regular"  y="50">and&#160;</text><text text-decoration="none" x="44" fill="rgb(255, 255, 255)" font-size="10pt" font-family="lt_regular"  y="50">submitted&#160;</text><text text-decoration="none" x="105" fill="rgb(255, 255, 255)" font-size="10pt" font-family="lt_regular"  y="50">to&#160;</text><text text-decoration="none" x="120" fill="rgb(255, 255, 255)" font-size="10pt" font-family="lt_regular"  y="50">Asst.&#160;</text><text text-decoration="none" x="152" fill="rgb(255, 255, 255)" font-size="10pt" font-family="lt_regular"  y="50">Manager&#160;</text><text text-decoration="none" x="2.5" fill="rgb(255, 255, 255)" font-size="10pt" font-family="lt_regular"  y="68">Accounts&#160;</text><text text-decoration="none" x="58.5" fill="rgb(255, 255, 255)" font-size="10pt" font-family="lt_regular"  y="68">AP&#160;</text><text text-decoration="none" x="78.5" fill="rgb(255, 255, 255)" font-size="10pt" font-family="lt_regular"  y="68">/&#160;</text><text text-decoration="none" x="87.5" fill="rgb(255, 255, 255)" font-size="10pt" font-family="lt_regular"  y="68">Cashier&#160;</text><text text-decoration="none" x="133.5" fill="rgb(255, 255, 255)" font-size="10pt" font-family="lt_regular"  y="68">for&#160;</text><text text-decoration="none" x="153.5" fill="rgb(255, 255, 255)" font-size="10pt" font-family="lt_regular"  y="68">Cheque&#160;</text><text text-decoration="none" x="200.5" fill="rgb(255, 255, 255)" font-size="10pt" font-family="lt_regular"  y="68">and&#160;</text><text text-decoration="none" x="67.5" fill="rgb(255, 255, 255)" font-size="10pt" font-family="lt_regular"  y="87">Cash&#160;</text><text text-decoration="none" x="98.5" fill="rgb(255, 255, 255)" font-size="10pt" font-family="lt_regular"  y="87">Payments</text><text text-decoration="none" x="155.5" fill="#4b4b4b" font-size="10pt" font-family="noto_regular"  y="87"></text></g></g><g id="VYybZO5jhfW"><g transform="translate(790 180)"><rect x="0" y="0" width="229.99999999999994" height="59.999999999999986" fill="rgb(0,174,181)" stroke="#00aeb5" stroke-width="2" stroke-linecap="round" stroke-linejoin="round" stroke-dasharray="0 0"/></g><g transform="translate(830, 182.5) rotate(0, 75, 27.5)" width="150" height="55"><text text-decoration="none" x="3.5" fill="rgb(255, 255, 255)" font-size="10pt" font-family="lt_regular"  y="14">Asst.&#160;</text><text text-decoration="none" x="35.5" fill="rgb(255, 255, 255)" font-size="10pt" font-family="lt_regular"  y="14">Manager&#160;</text><text text-decoration="none" x="88.5" fill="rgb(255, 255, 255)" font-size="10pt" font-family="lt_regular"  y="14">approches</text><text text-decoration="none" x="146.5" fill="rgb(255, 255, 255)" font-size="10pt" font-family="lt_regular"  y="14"></text><text text-decoration="none" x="2.5" fill="rgb(255, 255, 255)" font-size="10pt" font-family="lt_regular"  y="32">to&#160;</text><text text-decoration="none" x="17.5" fill="rgb(255, 255, 255)" font-size="10pt" font-family="lt_regular"  y="32">CFO&#160;</text><text text-decoration="none" x="46.5" fill="rgb(255, 255, 255)" font-size="10pt" font-family="lt_regular"  y="32">to&#160;</text><text text-decoration="none" x="61.5" fill="rgb(255, 255, 255)" font-size="10pt" font-family="lt_regular"  y="32">obtain&#160;</text><text text-decoration="none" x="99.5" fill="rgb(255, 255, 255)" font-size="10pt" font-family="lt_regular"  y="32">approval</text><text text-decoration="none" x="147.5" fill="rgb(255, 255, 255)" font-size="10pt" font-family="lt_regular"  y="32"></text><text text-decoration="none" x="18" fill="rgb(255, 255, 255)" font-size="10pt" font-family="lt_regular"  y="51">for&#160;</text><text text-decoration="none" x="38" fill="rgb(255, 255, 255)" font-size="10pt" font-family="lt_regular"  y="51">making&#160;</text><text text-decoration="none" x="82" fill="rgb(255, 255, 255)" font-size="10pt" font-family="lt_regular"  y="51">cheques.</text><text text-decoration="none" x="132" fill="#4b4b4b" font-size="10pt" font-family="noto_regular"  y="51"></text></g></g><g id="lzH31b3el6X"><g><path d="M 700,210 L 790,210" fill="none" stroke="#7E7E7E" stroke-width="2" stroke-linecap="round" stroke-linejoin="round"/><path d="M 790,210 L 781.304347826087,204.25 L 781.304347826087,215.75 Z" fill="rgb(126,126,126)" stroke="#7E7E7E" stroke-width="2" stroke-linecap="round" stroke-linejoin="round"/></g></g><g id="vcpNcKFRFpN"><g transform="translate(999.9999999999999 320)"><path d="M 105,0 L 0,85 L 105,170 L 210,85 L 105,0 Z" fill="rgb(93,161,87)" stroke="#5da157" stroke-width="2" stroke-linecap="round" stroke-linejoin="round" stroke-dasharray="0 0"/></g><g transform="translate(1029.5, 359.5) rotate(0, 75.5, 45.5)" width="151" height="91"><text text-decoration="none" x="40" fill="rgb(255, 255, 255)" font-size="10pt" font-family="lt_regular"  y="14">CFO&#160;</text><text text-decoration="none" x="69" fill="rgb(255, 255, 255)" font-size="10pt" font-family="lt_regular"  y="14">verifies</text><text text-decoration="none" x="111" fill="rgb(255, 255, 255)" font-size="10pt" font-family="lt_regular"  y="14"></text><text text-decoration="none" x="25.5" fill="rgb(255, 255, 255)" font-size="10pt" font-family="lt_regular"  y="32">suppliers,&#160;</text><text text-decoration="none" x="82.5" fill="rgb(255, 255, 255)" font-size="10pt" font-family="lt_regular"  y="32">dates&#160;</text><text text-decoration="none" x="116.5" fill="rgb(255, 255, 255)" font-size="10pt" font-family="lt_regular"  y="32">&#x26;</text><text text-decoration="none" x="125.5" fill="rgb(255, 255, 255)" font-size="10pt" font-family="lt_regular"  y="32"></text><text text-decoration="none" x="3" fill="rgb(255, 255, 255)" font-size="10pt" font-family="lt_regular"  y="50">amount&#160;</text><text text-decoration="none" x="49" fill="rgb(255, 255, 255)" font-size="10pt" font-family="lt_regular"  y="50">based&#160;</text><text text-decoration="none" x="85" fill="rgb(255, 255, 255)" font-size="10pt" font-family="lt_regular"  y="50">on&#160;</text><text text-decoration="none" x="102" fill="rgb(255, 255, 255)" font-size="10pt" font-family="lt_regular"  y="50">Supplier&#160;</text><text text-decoration="none" x="23" fill="rgb(255, 255, 255)" font-size="10pt" font-family="lt_regular"  y="68">Ageing&#160;</text><text text-decoration="none" x="66" fill="rgb(255, 255, 255)" font-size="10pt" font-family="lt_regular"  y="68">Report&#160;</text><text text-decoration="none" x="108" fill="rgb(255, 255, 255)" font-size="10pt" font-family="lt_regular"  y="68">and</text><text text-decoration="none" x="128" fill="rgb(255, 255, 255)" font-size="10pt" font-family="lt_regular"  y="68"></text><text text-decoration="none" x="28.5" fill="rgb(255, 255, 255)" font-size="10pt" font-family="lt_regular"  y="87">provide&#160;</text><text text-decoration="none" x="74.5" fill="rgb(255, 255, 255)" font-size="10pt" font-family="lt_regular"  y="87">approval</text><text text-decoration="none" x="122.5" fill="#4b4b4b" font-size="10pt" font-family="noto_regular"  y="87"></text></g></g><g id="avYYnwmoNiy"><g><path d="M 1020,210 L 1095,210 Q 1105,210 1105,220 L 1105,320" fill="none" stroke="#7E7E7E" stroke-width="2" stroke-linecap="round" stroke-linejoin="round"/><path d="M 1105,320 L 1110.75,311.30434782608694 L 1099.25,311.30434782608694 Z" fill="rgb(126,126,126)" stroke="#7E7E7E" stroke-width="2" stroke-linecap="round" stroke-linejoin="round"/></g></g><g id="QokI6pTZgH5"><g transform="translate(655.0000000000001 349.99999999999994)"><rect x="0" y="0" width="199.99999999999994" height="110.00000000000001" fill="rgb(0,174,181)" stroke="#00aeb5" stroke-width="2" stroke-linecap="round" stroke-linejoin="round" stroke-dasharray="0 0"/></g><g transform="translate(667.5, 368.49999999999994) rotate(0, 87.5, 36.5)" width="175" height="73"><text text-decoration="none" x="1.5" fill="rgb(255, 255, 255)" font-size="10pt" font-family="lt_regular"  y="14">Asst.&#160;</text><text text-decoration="none" x="33.5" fill="rgb(255, 255, 255)" font-size="10pt" font-family="lt_regular"  y="14">Manager&#160;</text><text text-decoration="none" x="86.5" fill="rgb(255, 255, 255)" font-size="10pt" font-family="lt_regular"  y="14">makes&#160;</text><text text-decoration="none" x="126.5" fill="rgb(255, 255, 255)" font-size="10pt" font-family="lt_regular"  y="14">cheques&#160;</text><text text-decoration="none" x="9" fill="rgb(255, 255, 255)" font-size="10pt" font-family="lt_regular"  y="32">as&#160;</text><text text-decoration="none" x="24" fill="rgb(255, 255, 255)" font-size="10pt" font-family="lt_regular"  y="32">per&#160;</text><text text-decoration="none" x="46" fill="rgb(255, 255, 255)" font-size="10pt" font-family="lt_regular"  y="32">approved&#160;</text><text text-decoration="none" x="102" fill="rgb(255, 255, 255)" font-size="10pt" font-family="lt_regular"  y="32">vouchers&#160;</text><text text-decoration="none" x="157" fill="rgb(255, 255, 255)" font-size="10pt" font-family="lt_regular"  y="32">&#x26;&#160;</text><text text-decoration="none" x="15" fill="rgb(255, 255, 255)" font-size="10pt" font-family="lt_regular"  y="50">ERP&#160;</text><text text-decoration="none" x="42" fill="rgb(255, 255, 255)" font-size="10pt" font-family="lt_regular"  y="50">Cheques&#160;</text><text text-decoration="none" x="95" fill="rgb(255, 255, 255)" font-size="10pt" font-family="lt_regular"  y="50">Remittance&#160;</text><text text-decoration="none" x="48.5" fill="rgb(255, 255, 255)" font-size="10pt" font-family="lt_regular"  y="69">Advice&#160;</text><text text-decoration="none" x="90.5" fill="rgb(255, 255, 255)" font-size="10pt" font-family="lt_regular"  y="69">report</text><text text-decoration="none" x="126.5" fill="#4b4b4b" font-size="10pt" font-family="noto_regular"  y="69"></text></g></g><g id="ac1dqa9Oh1x"><mask id="c78c8" x="841" y="391" width="173" height="28" maskUnits="userSpaceOnUse"><rect x="841" y="391" width="173" height="28" fill="white" /><rect x="896" y="392.49999999999994" width="63" height="25" fill="black" /></mask><g mask="url(#c78c8)"><path d="M 1000,405 L 928,405 Q 918,404.99999999999994 917.5,404.99999999999994 L 855,405" fill="none" stroke="#7E7E7E" stroke-width="2" stroke-linecap="round" stroke-linejoin="round"/><path d="M 855,405 L 863.695652173913,410.75 L 863.695652173913,399.25 Z" fill="rgb(126,126,126)" stroke="#7E7E7E" stroke-width="2" stroke-linecap="round" stroke-linejoin="round"/></g><g transform="translate(899, 395.49999999999994)" width="57" height="19"><text text-decoration="none" x="0.5" fill="#4b4b4b" font-size="10pt" font-family="lt_regular"  y="15">Approved</text><text text-decoration="none" x="56.5" fill="#4b4b4b" font-size="10pt" font-family="noto_regular"  y="15"></text></g></g><g id="oiQS60zOXF5"><g transform="translate(410 470)"><rect x="0" y="0" width="169.99999999999994" height="130.00000000000003" fill="rgb(0,174,181)" stroke="#00aeb5" stroke-width="2" stroke-linecap="round" stroke-linejoin="round" stroke-dasharray="0 0"/></g><g transform="translate(421.5, 480.5) rotate(0, 73.5, 54.5)" width="147" height="109"><text text-decoration="none" x="20.5" fill="rgb(255, 255, 255)" font-size="10pt" font-family="lt_regular"  y="14">Accounts&#160;</text><text text-decoration="none" x="76.5" fill="rgb(255, 255, 255)" font-size="10pt" font-family="lt_regular"  y="14">Manager&#160;</text><text text-decoration="none" x="21" fill="rgb(255, 255, 255)" font-size="10pt" font-family="lt_regular"  y="32">verifies&#160;</text><text text-decoration="none" x="66" fill="rgb(255, 255, 255)" font-size="10pt" font-family="lt_regular"  y="32">that&#160;</text><text text-decoration="none" x="92" fill="rgb(255, 255, 255)" font-size="10pt" font-family="lt_regular"  y="32">all&#160;</text><text text-decoration="none" x="107" fill="rgb(255, 255, 255)" font-size="10pt" font-family="lt_regular"  y="32">the&#160;</text><text text-decoration="none" x="2" fill="rgb(255, 255, 255)" font-size="10pt" font-family="lt_regular"  y="50">narrations&#160;</text><text text-decoration="none" x="62" fill="rgb(255, 255, 255)" font-size="10pt" font-family="lt_regular"  y="50">of&#160;</text><text text-decoration="none" x="77" fill="rgb(255, 255, 255)" font-size="10pt" font-family="lt_regular"  y="50">cheques&#160;</text><text text-decoration="none" x="127" fill="rgb(255, 255, 255)" font-size="10pt" font-family="lt_regular"  y="50">are&#160;</text><text text-decoration="none" x="6.5" fill="rgb(255, 255, 255)" font-size="10pt" font-family="lt_regular"  y="68">filled&#160;</text><text text-decoration="none" x="36.5" fill="rgb(255, 255, 255)" font-size="10pt" font-family="lt_regular"  y="68">in&#160;</text><text text-decoration="none" x="49.5" fill="rgb(255, 255, 255)" font-size="10pt" font-family="lt_regular"  y="68">accordance&#160;</text><text text-decoration="none" x="115.5" fill="rgb(255, 255, 255)" font-size="10pt" font-family="lt_regular"  y="68">with&#160;</text><text text-decoration="none" x="14.5" fill="rgb(255, 255, 255)" font-size="10pt" font-family="lt_regular"  y="86">Cheques&#160;</text><text text-decoration="none" x="67.5" fill="rgb(255, 255, 255)" font-size="10pt" font-family="lt_regular"  y="86">Remittance&#160;</text><text text-decoration="none" x="54" fill="rgb(255, 255, 255)" font-size="10pt" font-family="lt_regular"  y="105">Advice</text><text text-decoration="none" x="93" fill="#4b4b4b" font-size="10pt" font-family="noto_regular"  y="105"></text></g></g><g id="4OZlDQnuGju"><mask id="66feb" x="481" y="391" width="188" height="93" maskUnits="userSpaceOnUse"><rect x="481" y="391" width="188" height="93" fill="white" /><rect x="530" y="392.49999999999994" width="25" height="25" fill="black" /></mask><g mask="url(#66feb)"><path d="M 655,405 L 505,404.99999999999994 Q 495,404.99999999999994 495,414.99999999999994 L 495,470" fill="none" stroke="#7E7E7E" stroke-width="2" stroke-linecap="round" stroke-linejoin="round"/><path d="M 495,470 L 500.75,461.30434782608694 L 489.25,461.30434782608694 Z" fill="rgb(126,126,126)" stroke="#7E7E7E" stroke-width="2" stroke-linecap="round" stroke-linejoin="round"/></g><g transform="translate(533, 395.49999999999994)" width="19" height="19"><text text-decoration="none" x="0" fill="#4b4b4b" font-size="10pt" font-family="lt_regular"  y="15">OK</text><text text-decoration="none" x="19" fill="#4b4b4b" font-size="10pt" font-family="noto_regular"  y="15"></text></g></g><g id="KLd8QcW4TwZ"><g transform="translate(630.0000000000001 560.0000000000003)"><path d="M 125.00000000000001,0 L 0,100 L 125.00000000000001,200 L 250.00000000000003,100 L 125.00000000000001,0 Z" fill="rgb(93,161,87)" stroke="#5da157" stroke-width="2" stroke-linecap="round" stroke-linejoin="round" stroke-dasharray="0 0"/></g><g transform="translate(673.5000000000001, 596.5000000000003) rotate(0, 81.5, 63.5)" width="163" height="127"><text text-decoration="none" x="32" fill="rgb(255, 255, 255)" font-size="10pt" font-family="lt_regular"  y="14">Auditors&#160;</text><text text-decoration="none" x="84" fill="rgb(255, 255, 255)" font-size="10pt" font-family="lt_regular"  y="14">perform</text><text text-decoration="none" x="131" fill="rgb(255, 255, 255)" font-size="10pt" font-family="lt_regular"  y="14"></text><text text-decoration="none" x="27.5" fill="rgb(255, 255, 255)" font-size="10pt" font-family="lt_regular"  y="32">audit&#160;</text><text text-decoration="none" x="58.5" fill="rgb(255, 255, 255)" font-size="10pt" font-family="lt_regular"  y="32">of&#160;</text><text text-decoration="none" x="73.5" fill="rgb(255, 255, 255)" font-size="10pt" font-family="lt_regular"  y="32">cheques&#160;</text><text text-decoration="none" x="123.5" fill="rgb(255, 255, 255)" font-size="10pt" font-family="lt_regular"  y="32">to</text><text text-decoration="none" x="135.5" fill="rgb(255, 255, 255)" font-size="10pt" font-family="lt_regular"  y="32"></text><text text-decoration="none" x="1" fill="rgb(255, 255, 255)" font-size="10pt" font-family="lt_regular"  y="50">verify&#160;</text><text text-decoration="none" x="38" fill="rgb(255, 255, 255)" font-size="10pt" font-family="lt_regular"  y="50">right&#160;</text><text text-decoration="none" x="68" fill="rgb(255, 255, 255)" font-size="10pt" font-family="lt_regular"  y="50">cheque&#160;</text><text text-decoration="none" x="112" fill="rgb(255, 255, 255)" font-size="10pt" font-family="lt_regular"  y="50">numbers</text><text text-decoration="none" x="162" fill="rgb(255, 255, 255)" font-size="10pt" font-family="lt_regular"  y="50"></text><text text-decoration="none" x="4.5" fill="rgb(255, 255, 255)" font-size="10pt" font-family="lt_regular"  y="68">&#x26;&#160;</text><text text-decoration="none" x="16.5" fill="rgb(255, 255, 255)" font-size="10pt" font-family="lt_regular"  y="68">amount&#160;</text><text text-decoration="none" x="62.5" fill="rgb(255, 255, 255)" font-size="10pt" font-family="lt_regular"  y="68">against&#160;</text><text text-decoration="none" x="105.5" fill="rgb(255, 255, 255)" font-size="10pt" font-family="lt_regular"  y="68">approved</text><text text-decoration="none" x="158.5" fill="rgb(255, 255, 255)" font-size="10pt" font-family="lt_regular"  y="68"></text><text text-decoration="none" x="14" fill="rgb(255, 255, 255)" font-size="10pt" font-family="lt_regular"  y="86">vouchers&#160;</text><text text-decoration="none" x="69" fill="rgb(255, 255, 255)" font-size="10pt" font-family="lt_regular"  y="86">based&#160;</text><text text-decoration="none" x="105" fill="rgb(255, 255, 255)" font-size="10pt" font-family="lt_regular"  y="86">on&#160;</text><text text-decoration="none" x="122" fill="rgb(255, 255, 255)" font-size="10pt" font-family="lt_regular"  y="86">ERP&#160;</text><text text-decoration="none" x="149" fill="rgb(255, 255, 255)" font-size="10pt" font-family="lt_regular"  y="86"></text><text text-decoration="none" x="22.5" fill="rgb(255, 255, 255)" font-size="10pt" font-family="lt_regular"  y="104">Cheques&#160;</text><text text-decoration="none" x="75.5" fill="rgb(255, 255, 255)" font-size="10pt" font-family="lt_regular"  y="104">Remittance</text><text text-decoration="none" x="140.5" fill="rgb(255, 255, 255)" font-size="10pt" font-family="lt_regular"  y="104"></text><text text-decoration="none" x="62" fill="rgb(255, 255, 255)" font-size="10pt" font-family="lt_regular"  y="123">Advice</text><text text-decoration="none" x="101" fill="#4b4b4b" font-size="10pt" font-family="noto_regular"  y="123"></text></g></g><g id="pHe48L0Suni"><mask id="0cf7a" x="481" y="586" width="163" height="88" maskUnits="userSpaceOnUse"><rect x="481" y="586" width="163" height="88" fill="white" /><rect x="538.9179104477611" y="647.5000000000002" width="25" height="25" fill="black" /></mask><g mask="url(#0cf7a)"><path d="M 495,600 L 495,650.0000000000003 Q 495,660.0000000000003 505,660.0000000000003 L 630,660" fill="none" stroke="#7E7E7E" stroke-width="2" stroke-linecap="round" stroke-linejoin="round"/><path d="M 630,660 L 621.304347826087,654.25 L 621.304347826087,665.75 Z" fill="rgb(126,126,126)" stroke="#7E7E7E" stroke-width="2" stroke-linecap="round" stroke-linejoin="round"/></g><g transform="translate(541.9179104477611, 650.5000000000002)" width="19" height="19"><text text-decoration="none" x="0" fill="#4b4b4b" font-size="10pt" font-family="lt_regular"  y="15">OK</text><text text-decoration="none" x="19" fill="#4b4b4b" font-size="10pt" font-family="noto_regular"  y="15"></text></g></g><g id="LnyEg8Lc2ip"><mask id="e6469" x="741" y="446" width="28" height="128" maskUnits="userSpaceOnUse"><rect x="741" y="446" width="28" height="128" fill="white" /><rect x="734" y="497.5000000000001" width="42" height="25" fill="black" /></mask><g mask="url(#e6469)"><path d="M 755,560 L 755.0000000000001,520.0000000000001 Q 755.0000000000001,520 755,510 Q 755,500.0000000000002 755,500.0000000000001 L 755,460" fill="none" stroke="#7E7E7E" stroke-width="2" stroke-linecap="round" stroke-linejoin="round"/><path d="M 755,460 L 749.25,468.69565217391306 L 760.75,468.69565217391306 Z" fill="rgb(126,126,126)" stroke="#7E7E7E" stroke-width="2" stroke-linecap="round" stroke-linejoin="round"/></g><g transform="translate(737, 500.5000000000001)" width="36" height="19"><text text-decoration="none" x="0" fill="#4b4b4b" font-size="10pt" font-family="lt_regular"  y="15">Reject</text><text text-decoration="none" x="36" fill="#4b4b4b" font-size="10pt" font-family="noto_regular"  y="15"></text></g></g><g id="r7ELmUcHWGn"><g transform="translate(980.0000000000001 560.0000000000003)"><path d="M 125.00000000000001,0 L 0,95 L 125.00000000000001,190 L 250.00000000000003,95 L 125.00000000000001,0 Z" fill="rgb(93,161,87)" stroke="#5da157" stroke-width="2" stroke-linecap="round" stroke-linejoin="round" stroke-dasharray="0 0"/></g><g transform="translate(1026.5000000000002, 600.5000000000003) rotate(0, 78.5, 54.5)" width="157" height="109"><text text-decoration="none" x="28.5" fill="rgb(255, 255, 255)" font-size="10pt" font-family="lt_regular"  y="14">CFO&#160;</text><text text-decoration="none" x="57.5" fill="rgb(255, 255, 255)" font-size="10pt" font-family="lt_regular"  y="14">ensures&#160;</text><text text-decoration="none" x="105.5" fill="rgb(255, 255, 255)" font-size="10pt" font-family="lt_regular"  y="14">that</text><text text-decoration="none" x="128.5" fill="rgb(255, 255, 255)" font-size="10pt" font-family="lt_regular"  y="14"></text><text text-decoration="none" x="20" fill="rgb(255, 255, 255)" font-size="10pt" font-family="lt_regular"  y="32">cheques&#160;</text><text text-decoration="none" x="70" fill="rgb(255, 255, 255)" font-size="10pt" font-family="lt_regular"  y="32">are&#160;</text><text text-decoration="none" x="91" fill="rgb(255, 255, 255)" font-size="10pt" font-family="lt_regular"  y="32">made&#160;</text><text text-decoration="none" x="125" fill="rgb(255, 255, 255)" font-size="10pt" font-family="lt_regular"  y="32">as</text><text text-decoration="none" x="137" fill="rgb(255, 255, 255)" font-size="10pt" font-family="lt_regular"  y="32"></text><text text-decoration="none" x="4" fill="rgb(255, 255, 255)" font-size="10pt" font-family="lt_regular"  y="50">per&#160;</text><text text-decoration="none" x="26" fill="rgb(255, 255, 255)" font-size="10pt" font-family="lt_regular"  y="50">his&#160;</text><text text-decoration="none" x="45" fill="rgb(255, 255, 255)" font-size="10pt" font-family="lt_regular"  y="50">approval&#160;</text><text text-decoration="none" x="96" fill="rgb(255, 255, 255)" font-size="10pt" font-family="lt_regular"  y="50">and&#160;</text><text text-decoration="none" x="119" fill="rgb(255, 255, 255)" font-size="10pt" font-family="lt_regular"  y="50">verify</text><text text-decoration="none" x="153" fill="rgb(255, 255, 255)" font-size="10pt" font-family="lt_regular"  y="50"></text><text text-decoration="none" x="2.5" fill="rgb(255, 255, 255)" font-size="10pt" font-family="lt_regular"  y="68">cheque&#160;</text><text text-decoration="none" x="46.5" fill="rgb(255, 255, 255)" font-size="10pt" font-family="lt_regular"  y="68">numbers&#160;</text><text text-decoration="none" x="99.5" fill="rgb(255, 255, 255)" font-size="10pt" font-family="lt_regular"  y="68">&#x26;&#160;</text><text text-decoration="none" x="111.5" fill="rgb(255, 255, 255)" font-size="10pt" font-family="lt_regular"  y="68">amount</text><text text-decoration="none" x="154.5" fill="rgb(255, 255, 255)" font-size="10pt" font-family="lt_regular"  y="68"></text><text text-decoration="none" x="26" fill="rgb(255, 255, 255)" font-size="10pt" font-family="lt_regular"  y="86">with&#160;</text><text text-decoration="none" x="54" fill="rgb(255, 255, 255)" font-size="10pt" font-family="lt_regular"  y="86">ERP&#160;</text><text text-decoration="none" x="81" fill="rgb(255, 255, 255)" font-size="10pt" font-family="lt_regular"  y="86">Cheques</text><text text-decoration="none" x="131" fill="rgb(255, 255, 255)" font-size="10pt" font-family="lt_regular"  y="86"></text><text text-decoration="none" x="25" fill="rgb(255, 255, 255)" font-size="10pt" font-family="lt_regular"  y="105">Remittance&#160;</text><text text-decoration="none" x="93" fill="rgb(255, 255, 255)" font-size="10pt" font-family="lt_regular"  y="105">Advice</text><text text-decoration="none" x="132" fill="#4b4b4b" font-size="10pt" font-family="noto_regular"  y="105"></text></g></g><g id="w4OImPoDeKC"><mask id="3e502" x="866" y="641" width="128" height="33" maskUnits="userSpaceOnUse"><rect x="866" y="641" width="128" height="33" fill="white" /><rect x="917.5" y="645.0000000000005" width="25" height="25" fill="black" /></mask><g mask="url(#3e502)"><path d="M 880,660 L 920.0000000000001,660.0000000000002 Q 922.0000000000005,660.0000000000002 930,658 Q 937.0000000000005,655.0000000000002 940.0000000000001,655.0000000000002 L 980,655" fill="none" stroke="#7E7E7E" stroke-width="2" stroke-linecap="round" stroke-linejoin="round"/><path d="M 980,655 L 971.304347826087,649.25 L 971.304347826087,660.75 Z" fill="rgb(126,126,126)" stroke="#7E7E7E" stroke-width="2" stroke-linecap="round" stroke-linejoin="round"/></g><g transform="translate(920.5, 648.0000000000005)" width="19" height="19"><text text-decoration="none" x="0" fill="#4b4b4b" font-size="10pt" font-family="lt_regular"  y="15">OK</text><text text-decoration="none" x="19" fill="#4b4b4b" font-size="10pt" font-family="noto_regular"  y="15"></text></g></g><g id="BlflnMxy893"><mask id="e3539" x="743" y="518" width="376" height="56" maskUnits="userSpaceOnUse"><rect x="743" y="518" width="376" height="56" fill="white" /><rect x="924" y="519.5000000000001" width="42" height="25" fill="black" />undefinedundefinedundefined</mask><g mask="url(#e3539)"><path d="M 1105,560 L 1105.0000000000002,542.0000000000001 Q 1105.0000000000002,532.0000000000001 1095.0000000000002,532.0000000000001 L 757,532" fill="none" stroke="#7E7E7E" stroke-width="2" stroke-linecap="round" stroke-linejoin="round"/><path d="M 1105,560 L 1110.75,551.304347826087 L 1099.25,551.304347826087 Z" fill="rgb(126,126,126)" stroke="#7E7E7E" stroke-width="2" stroke-linecap="round" stroke-linejoin="round"/><path d="M 757,532 L 765.695652173913,537.75 L 765.695652173913,526.25 Z" fill="rgb(126,126,126)" stroke="#7E7E7E" stroke-width="2" stroke-linecap="round" stroke-linejoin="round"/></g><g transform="translate(927, 522.5000000000001)" width="36" height="19"><text text-decoration="none" x="0" fill="#4b4b4b" font-size="10pt" font-family="lt_regular"  y="15">Reject</text><text text-decoration="none" x="36" fill="#4b4b4b" font-size="10pt" font-family="noto_regular"  y="15"></text></g>undefinedundefinedundefined</g><g id="7UNDMeGc5di"><mask id="45384" x="566" y="520" width="199" height="29" maskUnits="userSpaceOnUse"><rect x="566" y="520" width="199" height="29" fill="white" /><rect x="644.8618033988749" y="522.22360679775" width="42" height="25" fill="black" /></mask><g mask="url(#45384)"><path d="M 580,535 L 655.5,535 Q 656,535 666,535 Q 674.3819660112501,534 675.5,534 L 751,534" fill="none" stroke="#7E7E7E" stroke-width="2" stroke-linecap="round" stroke-linejoin="round"/><path d="M 751,534 L 742.304347826087,528.25 L 742.304347826087,539.75 Z" fill="rgb(126,126,126)" stroke="#7E7E7E" stroke-width="2" stroke-linecap="round" stroke-linejoin="round"/></g><g transform="translate(647.8618033988749, 525.22360679775)" width="36" height="19"><text text-decoration="none" x="0" fill="#4b4b4b" font-size="10pt" font-family="lt_regular"  y="15">Reject</text><text text-decoration="none" x="36" fill="#4b4b4b" font-size="10pt" font-family="noto_regular"  y="15"></text></g></g><g id="khTbsgZVE26"><g transform="translate(830.0000000000001 820)"><rect x="0" y="0" width="169.99999999999997" height="69.99999999999999" fill="rgb(0,174,181)" stroke="#00aeb5" stroke-width="2" stroke-linecap="round" stroke-linejoin="round" stroke-dasharray="0 0"/></g><g transform="translate(847.5000000000001, 827.5) rotate(0, 67.5, 27.5)" width="135" height="55"><text text-decoration="none" x="1" fill="rgb(255, 255, 255)" font-size="10pt" font-family="lt_regular"  y="14">Chief&#160;</text><text text-decoration="none" x="35" fill="rgb(255, 255, 255)" font-size="10pt" font-family="lt_regular"  y="14">Executive&#160;</text><text text-decoration="none" x="94" fill="rgb(255, 255, 255)" font-size="10pt" font-family="lt_regular"  y="14">Officer&#160;</text><text text-decoration="none" x="24" fill="rgb(255, 255, 255)" font-size="10pt" font-family="lt_regular"  y="32">(CEO)&#160;</text><text text-decoration="none" x="60" fill="rgb(255, 255, 255)" font-size="10pt" font-family="lt_regular"  y="32">signs&#160;</text><text text-decoration="none" x="92" fill="rgb(255, 255, 255)" font-size="10pt" font-family="lt_regular"  y="32">the</text><text text-decoration="none" x="111" fill="rgb(255, 255, 255)" font-size="10pt" font-family="lt_regular"  y="32"></text><text text-decoration="none" x="41" fill="rgb(255, 255, 255)" font-size="10pt" font-family="lt_regular"  y="51">Cheques.</text><text text-decoration="none" x="94" fill="#4b4b4b" font-size="10pt" font-family="noto_regular"  y="51"></text></g></g><g id="ubBdSz8psrc"><mask id="dd298" x="986" y="736" width="133" height="133" maskUnits="userSpaceOnUse"><rect x="986" y="736" width="133" height="133" fill="white" /><rect x="1092.5" y="842.5" width="25" height="25" fill="black" /></mask><g mask="url(#dd298)"><path d="M 1105,750 L 1105.0000000000002,845 Q 1105.0000000000002,855 1095.0000000000002,855 L 1000,855" fill="none" stroke="#7E7E7E" stroke-width="2" stroke-linecap="round" stroke-linejoin="round"/><path d="M 1000,855 L 1008.695652173913,860.75 L 1008.695652173913,849.25 Z" fill="rgb(126,126,126)" stroke="#7E7E7E" stroke-width="2" stroke-linecap="round" stroke-linejoin="round"/></g><g transform="translate(1095.5, 845.5)" width="19" height="19"><text text-decoration="none" x="0" fill="#4b4b4b" font-size="10pt" font-family="lt_regular"  y="15">OK</text><text text-decoration="none" x="19" fill="#4b4b4b" font-size="10pt" font-family="noto_regular"  y="15"></text></g></g><g id="59tYnkPA7JZ"><g transform="translate(459.9999999999999 810.0000000000006)"><path d="M 45.00000000000001,90.00000000000001 L 45.00000000000001,90.00000000000001 L 45.00000000000001,90.00000000000001 A 45.00000000000001 45.00000000000001 0 0 1 0 45.000000000000014 L 0,45.00000000000001 L 0,45.000000000000014 A 45.00000000000001 45.00000000000001 0 0 1 45.00000000000001 0 L 184.99999999999997,0 L 184.99999999999997,0 L 184.99999999999997,0 A 45.00000000000001 45.00000000000001 0 0 1 229.99999999999997 45.00000000000001 L 229.99999999999997,45.00000000000001 L 229.99999999999997,45.00000000000001 A 45.00000000000001 45.00000000000001 0 0 1 184.99999999999997 90.00000000000001 L 45.00000000000001,90.00000000000001 Z" fill="rgb(240,82,84)" stroke="#f05254" stroke-width="2" stroke-linecap="round" stroke-linejoin="round" stroke-dasharray="0 0"/></g><g transform="translate(470.9999999999999, 818.5000000000006) rotate(0, 104, 36.5)" width="208" height="73"><text text-decoration="none" x="11.5" fill="rgb(255, 255, 255)" font-size="10pt" font-family="lt_regular"  y="14">Sr.Officer&#160;</text><text text-decoration="none" x="69.5" fill="rgb(255, 255, 255)" font-size="10pt" font-family="lt_regular"  y="14">Accounts&#160;</text><text text-decoration="none" x="125.5" fill="rgb(255, 255, 255)" font-size="10pt" font-family="lt_regular"  y="14">(Cashier)&#160;</text><text text-decoration="none" x="177.5" fill="rgb(255, 255, 255)" font-size="10pt" font-family="lt_regular"  y="14">will&#160;</text><text text-decoration="none" x="3" fill="rgb(255, 255, 255)" font-size="10pt" font-family="lt_regular"  y="32">hand&#160;</text><text text-decoration="none" x="33" fill="rgb(255, 255, 255)" font-size="10pt" font-family="lt_regular"  y="32">over&#160;</text><text text-decoration="none" x="62" fill="rgb(255, 255, 255)" font-size="10pt" font-family="lt_regular"  y="32">/&#160;</text><text text-decoration="none" x="71" fill="rgb(255, 255, 255)" font-size="10pt" font-family="lt_regular"  y="32">dispatch&#160;</text><text text-decoration="none" x="121" fill="rgb(255, 255, 255)" font-size="10pt" font-family="lt_regular"  y="32">the&#160;</text><text text-decoration="none" x="143" fill="rgb(255, 255, 255)" font-size="10pt" font-family="lt_regular"  y="32">cheques&#160;</text><text text-decoration="none" x="193" fill="rgb(255, 255, 255)" font-size="10pt" font-family="lt_regular"  y="32">to&#160;</text><text text-decoration="none" x="73" fill="rgb(255, 255, 255)" font-size="10pt" font-family="lt_regular"  y="50">parties&#160;</text><text text-decoration="none" x="115" fill="rgb(255, 255, 255)" font-size="10pt" font-family="lt_regular"  y="50">and</text><text text-decoration="none" x="135" fill="rgb(255, 255, 255)" font-size="10pt" font-family="lt_regular"  y="50"></text><text text-decoration="none" x="29.5" fill="rgb(255, 255, 255)" font-size="10pt" font-family="lt_regular"  y="69">receive&#160;</text><text text-decoration="none" x="74.5" fill="rgb(255, 255, 255)" font-size="10pt" font-family="lt_regular"  y="69">acknowledgement</text><text text-decoration="none" x="178.5" fill="#4b4b4b" font-size="10pt" font-family="noto_regular"  y="69"></text></g></g><g id="qTnoM8imDOL"><mask id="24f02" x="676" y="841" width="168" height="28" maskUnits="userSpaceOnUse"><rect x="676" y="841" width="168" height="28" fill="white" /><rect x="756.4999999999998" y="842.5" width="25" height="25" fill="black" /></mask><g mask="url(#24f02)"><path d="M 690,855 L 750,855.0000000000005 Q 750.0000000000006,855.0000000000005 760,855 Q 770,855 770,855 L 830,855" fill="none" stroke="#7E7E7E" stroke-width="2" stroke-linecap="round" stroke-linejoin="round"/><path d="M 690,855 L 698.695652173913,860.75 L 698.695652173913,849.25 Z" fill="rgb(126,126,126)" stroke="#7E7E7E" stroke-width="2" stroke-linecap="round" stroke-linejoin="round"/><path d="M 830,855 L 821.304347826087,849.25 L 821.304347826087,860.75 Z" fill="rgb(126,126,126)" stroke="#7E7E7E" stroke-width="2" stroke-linecap="round" stroke-linejoin="round"/></g><g transform="translate(759.4999999999998, 845.5)" width="19" height="19"><text text-decoration="none" x="0" fill="#4b4b4b" font-size="10pt" font-family="lt_regular"  y="15">OK</text><text text-decoration="none" x="19" fill="#4b4b4b" font-size="10pt" font-family="noto_regular"  y="15"></text></g></g></svg>